# xmcd
# 
# Track frame offsets:
#     150
#     20334
#     36473
#     54933
#     79879
#     96635
#     114638
#     127388
#     142603
#     161767
#     187552
#     205820
#     229461
# 
# Disc length: 3340
# 
# Revision: 3
# Processed by: cddbd v1.5.2PL0 Copyright (c) Steve Scherf et al.
# Submitted via: BonkEnc v1.0.8
# 
DISCID=b30d0a0d
DTITLE=Matt Dusk - Two Shots
DYEAR=2004
DGENRE=Jazz
TTITLE0=Two Shots Of Happy, One Shot Of Sad
TTITLE1=Miracle
TTITLE2=Cold As Ice
TTITLE3=Lonely Road
TTITLE4=The Theme From Loaded Gun
TTITLE5=Don't Go Looking
TTITLE6=Fly Me To The Moon
TTITLE7=Please Please Me
TTITLE8=Precious Years
TTITLE9=Always
TTITLE10=Every Mother's Son
TTITLE11=Five
TTITLE12=Two Shots Of Happy, One Shot Of Sad (Hot Nugget Remix) (bonus track)
EXTD=YEAR: 2004
EXTT0=
EXTT1=
EXTT2=
EXTT3=
EXTT4=
EXTT5=
EXTT6=
EXTT7=
EXTT8=
EXTT9=
EXTT10=
EXTT11=
EXTT12=
PLAYORDER=
